<svg width="29" height="30" viewBox="0 0 29 30" fill="none" xmlns="http://www.w3.org/2000/svg">
<g clip-path="url(#clip0_16_2335)">
<ellipse cx="15.8184" cy="16.9563" rx="10.5455" ry="10.4348" fill="white"/>
<path d="M14.5 0.46875C6.48992 0.46875 0 6.97266 0 15C0 23.0273 6.48992 29.5312 14.5 29.5312C22.5101 29.5312 29 23.0273 29 15C29 6.97266 22.5101 0.46875 14.5 0.46875ZM21.6214 10.4238L19.2417 21.6621C19.0663 22.459 18.5927 22.6523 17.9321 22.2773L14.3071 19.5996L12.5589 21.2871C12.3659 21.4805 12.2022 21.6445 11.828 21.6445L12.0853 17.9473L18.8032 11.8652C19.0956 11.6074 18.7389 11.4609 18.353 11.7188L10.0506 16.957L6.47238 15.8379C5.69476 15.5918 5.67722 15.0586 6.63609 14.6836L20.6157 9.28125C21.2647 9.04688 21.8319 9.43945 21.6214 10.4238Z" fill="#4094F7"/>
</g>
<defs>
<clipPath id="clip0_16_2335">
<rect width="29" height="30" fill="white"/>
</clipPath>
</defs>
</svg>
